<?xml version="1.0" encoding="UTF-8" standalone="no"?>
<!-- Created with Inkscape (http://www.inkscape.org/) -->

<svg
   xmlns:dc="http://purl.org/dc/elements/1.1/"
   xmlns:cc="http://creativecommons.org/ns#"
   xmlns:rdf="http://www.w3.org/1999/02/22-rdf-syntax-ns#"
   xmlns:svg="http://www.w3.org/2000/svg"
   xmlns="http://www.w3.org/2000/svg"
   xmlns:sodipodi="http://sodipodi.sourceforge.net/DTD/sodipodi-0.dtd"
   xmlns:inkscape="http://www.inkscape.org/namespaces/inkscape"
   width="210mm"
   height="297mm"
   viewBox="0 0 210 297"
   version="1.1"
   id="svg8"
   inkscape:version="0.92.4 (5da689c313, 2019-01-14)"
   sodipodi:docname="magicien.svg">
  <defs
     id="defs2" />
  <sodipodi:namedview
     id="base"
     pagecolor="#ffffff"
     bordercolor="#666666"
     borderopacity="1.0"
     inkscape:pageopacity="0.0"
     inkscape:pageshadow="2"
     inkscape:zoom="0.7"
     inkscape:cx="610.4232"
     inkscape:cy="506.63773"
     inkscape:document-units="mm"
     inkscape:current-layer="layer1"
     showgrid="false"
     inkscape:window-width="1920"
     inkscape:window-height="1017"
     inkscape:window-x="-8"
     inkscape:window-y="-8"
     inkscape:window-maximized="1" />
  <metadata
     id="metadata5">
    <rdf:RDF>
      <cc:Work
         rdf:about="">
        <dc:format>image/svg+xml</dc:format>
        <dc:type
           rdf:resource="http://purl.org/dc/dcmitype/StillImage" />
        <dc:title />
      </cc:Work>
    </rdf:RDF>
  </metadata>
  <g
     inkscape:label="Calque 1"
     inkscape:groupmode="layer"
     id="layer1">
    <rect
       style="opacity:1;fill:#cb9142;fill-opacity:1;fill-rule:evenodd;stroke-width:2;stroke-miterlimit:4;stroke-dasharray:none"
       id="rect4878"
       width="32.883923"
       height="74.083313"
       x="88.824409"
       y="125.02083" />
    <ellipse
       style="opacity:1;fill:#000000;fill-opacity:1;fill-rule:evenodd;stroke-width:0.26458332"
       id="path4805"
       cx="105.83333"
       cy="91.758926"
       rx="35.151787"
       ry="37.041668" />
    <path
       style="fill:#ffea4c;fill-opacity:1;stroke:#000000;stroke-width:2;stroke-linecap:butt;stroke-linejoin:miter;stroke-miterlimit:4;stroke-dasharray:none;stroke-opacity:1"
       d="m 110.36904,121.99701 c 1.51191,0 20.41072,-12.09524 20.41072,-12.09524 l 7.55952,9.07143 -15.875,12.85119 12.09524,18.14286 3.77976,27.97024 -8.31547,-4.53571 10.58333,15.875 10.58334,21.92261 v 0 0 l -29.48215,-12.09524 c 0,0 -13.60714,-8.31548 -12.85119,-13.60713 0.75595,-5.29167 -7.55953,-37.04167 -7.55953,-37.04167 l 9.07144,-26.45834 v 0"
       id="path4828-9"
       inkscape:connector-curvature="0"
       sodipodi:nodetypes="ccccccccccccsccc" />
    <path
       style="fill:#ffea6c;stroke:#000000;stroke-width:2;stroke-linecap:butt;stroke-linejoin:miter;stroke-opacity:1;stroke-miterlimit:4;stroke-dasharray:none;fill-opacity:1"
       d="m 97.517856,123.50893 c -1.511906,0 -20.410714,-12.09524 -20.410714,-12.09524 l -7.559525,9.07143 15.875,12.85119 -12.095236,18.14286 -3.779764,27.97023 8.315476,-4.53571 -10.583333,15.875 -10.583333,21.92262 v 0 0 l 28.726191,-9.07143 c 0,0 14.363096,-11.33929 13.607142,-16.63095 -0.755952,-5.29167 -7.559523,-36.28571 -7.559523,-36.28571 l 6.047617,-27.21429 v 0"
       id="path4828"
       inkscape:connector-curvature="0"
       sodipodi:nodetypes="ccccccccccccsccc" />
    <ellipse
       style="opacity:1;fill:#ffea00;fill-opacity:1;fill-rule:evenodd;stroke-width:0.2265369"
       id="path4807"
       cx="81.642853"
       cy="95.160713"
       rx="7.5595236"
       ry="14.741071" />
    <ellipse
       style="opacity:1;fill:#ffea00;fill-opacity:1;fill-rule:evenodd;stroke-width:0.2265369"
       id="path4807-4"
       cx="104.32143"
       cy="95.160713"
       rx="7.5595236"
       ry="14.741071" />
    <path
       style="fill:#fff23b;fill-opacity:1;stroke:#000000;stroke-width:2;stroke-linecap:butt;stroke-linejoin:miter;stroke-miterlimit:4;stroke-dasharray:none;stroke-opacity:1"
       d="M 58.964286,104.61012 99.785713,81.931545 117.92857,103.09821 c 0,0 -6.04762,-24.946425 -2.26787,-23.434522 3.77977,1.511906 42.33334,34.773812 42.33334,34.773812 L 148.92261,77.395831 136.82737,64.544642 159.50594,76.63988 135.31547,38.842261 175.38094,56.229166 c 0,0 -25.70238,-28.726191 -27.97024,-28.726191 -2.26786,0 -25.70238,-3.779762 -25.70238,-3.779762 L 79.374998,48.669641 77.107141,58.497023 60.476189,86.46726 66.52381,91.002975 Z"
       id="path4863"
       inkscape:connector-curvature="0"
       sodipodi:nodetypes="cccsccccccscccccc" />
    <path
       style="fill:#ffff40;stroke:#000000;stroke-width:2;stroke-linecap:butt;stroke-linejoin:miter;stroke-miterlimit:4;stroke-dasharray:none;stroke-opacity:1;fill-opacity:1"
       d="m 85.422617,203.63988 15.119053,-7.18155 -1e-5,17.38691 -3.779755,7.55952 6.047615,21.16666 c -1.51191,0.75595 -11.703995,2.99851 -15.874998,3.02381 L 83.15476,213.08928 Z"
       id="path4880"
       inkscape:connector-curvature="0"
       sodipodi:nodetypes="cccccccc" />
    <path
       style="fill:#ffff40;stroke:#000000;stroke-width:2;stroke-linecap:butt;stroke-linejoin:miter;stroke-miterlimit:4;stroke-dasharray:none;stroke-opacity:1;fill-opacity:1"
       d="m 121.70833,199.10415 -21.16666,-2.64582 3.25774,19.65476 7.55953,26.45834 15.875,0.75595 -8.31548,-19.65476 1.5119,-9.82738 z"
       id="path4882"
       inkscape:connector-curvature="0"
       sodipodi:nodetypes="cccccccc" />
    <path
       style="fill:#ffff46;fill-opacity:1;stroke:#000000;stroke-width:2.41647434;stroke-linecap:butt;stroke-linejoin:miter;stroke-miterlimit:4;stroke-dasharray:none;stroke-opacity:1"
       d="m 114.90476,132.17202 9.07143,17.65708 12.09523,33.107 2.26786,16.55351 34.01786,-7.72496 -17.3869,-13.24281 c 0,0 -8.31548,-11.03568 -9.07144,-14.34638 -0.75595,-3.3107 -21.92261,-33.10702 -21.92261,-33.10702 z"
       id="path4884"
       inkscape:connector-curvature="0"
       sodipodi:nodetypes="ccccccccc" />
    <path
       style="fill:#ffff46;fill-opacity:1;stroke:#000000;stroke-width:2.31563115;stroke-linecap:butt;stroke-linejoin:miter;stroke-miterlimit:4;stroke-dasharray:none;stroke-opacity:1"
       d="m 90.714277,132.83383 -9.07143,16.21412 -12.09523,30.40145 -2.26786,15.20073 -34.01786,-7.09365 17.3869,-12.16059 c 0,0 8.31548,-10.13384 9.07144,-13.17399 0.75595,-3.04014 21.92261,-30.40146 21.92261,-30.40146 z"
       id="path4884-4"
       inkscape:connector-curvature="0"
       sodipodi:nodetypes="ccccccccc" />
    <path
       style="fill:#000005;stroke:#000000;stroke-width:2;stroke-linecap:butt;stroke-linejoin:miter;stroke-opacity:1;stroke-miterlimit:4;stroke-dasharray:none;fill-opacity:1"
       d="m 33.261897,187.55648 -11.339288,5.29167 5.291667,5.29167 c 0,0 6.803572,3.02381 8.315476,0.75595 1.511905,-2.26786 4.535715,0.75595 4.535715,0.75595 l 8.315475,-3.02381 11.339283,-2.18618 z"
       id="path4901"
       inkscape:connector-curvature="0"
       sodipodi:nodetypes="cccscccc" />
    <path
       style="fill:#000005;stroke:#000000;stroke-width:2;stroke-linecap:butt;stroke-linejoin:miter;stroke-miterlimit:4;stroke-dasharray:none;stroke-opacity:1;fill-opacity:1"
       d="m 172.35714,191.76465 11.33929,5.29167 -5.29167,5.29167 c 0,0 -6.80357,3.02381 -8.31547,0.75595 -1.51191,-2.26786 -4.53572,0.75595 -4.53572,0.75595 l -8.31547,-3.02381 -11.33929,-2.18618 z"
       id="path4901-9"
       inkscape:connector-curvature="0"
       sodipodi:nodetypes="cccscccc" />
    <path
       style="fill:#000000;fill-opacity:1;stroke:#000000;stroke-width:2;stroke-linecap:butt;stroke-linejoin:miter;stroke-miterlimit:4;stroke-dasharray:none;stroke-opacity:1"
       d="m 87.085712,247.10713 c 0,0 0.377979,8.69346 -3.401782,8.69346 -3.779763,0 -10.583333,-3.02381 -10.583333,-3.02381 l -7.559524,-4.53572 7.559524,15.11905 h 33.261923 l -3.40179,-19.27679 z"
       id="path833"
       inkscape:connector-curvature="0" />
    <path
       style="fill:#000000;stroke:#000000;stroke-width:2;stroke-linecap:butt;stroke-linejoin:miter;stroke-opacity:1;stroke-miterlimit:4;stroke-dasharray:none;fill-opacity:1"
       d="m 127.23394,243.32738 0.14403,18.52083 -24.19047,1.5119 -14.741077,-9.4494 c 0,0 13.429487,1.65402 20.032747,-1.88988 2.90138,-1.55714 2.87977,-9.4494 2.87977,-9.4494 z"
       id="path835"
       inkscape:connector-curvature="0"
       sodipodi:nodetypes="ccccscc" />
  </g>
</svg>
